<svg width="160" height="105" viewBox="0 0 160 105" fill="none" xmlns="http://www.w3.org/2000/svg">
<path fill-rule="evenodd" clip-rule="evenodd" d="M88.8026 0.29675C33.1942 4.35113 -7.16878 36.7773 1.0683 70.7795C11.8594 115.325 107.909 116.736 147.428 72.9293C179.61 37.2546 146.391 -3.90184 88.8026 0.29675ZM105.027 7.40939C171.748 15.6569 163.068 79.086 92.9742 95.4911C19.6591 112.65 -22.1527 57.6516 36.9778 21.8348C49.6654 14.1498 65.4028 9.22573 83.9891 7.12644C87.3377 6.74838 101.185 6.93451 105.027 7.40939ZM86.5563 18.5041C70.6222 19.6353 47.4724 26.9037 41.6308 32.6094C41.1896 33.0403 39.6849 34.2182 38.2871 35.2269C18.3145 49.638 18.0527 70.396 37.7143 80.647C39.6233 81.6425 41.1367 82.6124 41.077 82.8022C40.835 83.5734 51.043 86.0081 57.1699 86.6412C90.3705 90.0707 128.302 74.3792 138.109 53.1585C139.617 49.8947 139.159 51.9575 137.579 55.5469C135.421 60.4464 131.779 65.3186 126.829 69.9266C124.904 71.7181 126.161 70.967 129.556 68.2964C153.003 49.8541 148.593 27.8934 119.789 19.6571C116.742 18.7861 115.539 18.7639 118.283 19.6295C124.316 21.5327 131.863 26.84 135.244 31.5564L136.746 33.6516L134.502 31.4238C124.866 21.8569 107.03 17.0509 86.5563 18.5041ZM120.507 32.9258C124.418 32.1213 126.293 32.4738 128.289 34.3896C130.224 36.2472 130.654 39.9536 129.045 40.9101C128.651 41.1443 128.819 41.3898 129.882 42.137C133.99 45.0249 132.916 51.9326 128.149 53.2887C127.423 53.4953 124.951 54.2528 122.657 54.9721C118.738 56.2004 114.978 57.0475 111.54 57.4764L110.05 57.6622L109.667 55.3727C109.456 54.1134 109.22 52.8329 109.142 52.5271C109.027 52.0772 109.354 51.9268 110.855 51.74C118.903 50.7364 127.299 48.0828 127.807 46.382C128.078 45.4769 127.219 44.673 126.215 44.8912C125.847 44.9713 124.534 45.1299 123.299 45.2434C122.063 45.3572 120.604 45.5314 120.056 45.6306C119.206 45.7847 117.415 41.9669 118.102 41.4658C118.137 41.4409 119.392 41.0765 120.892 40.6562C123.795 39.8428 125.706 38.8251 125.706 38.0919C125.706 37.3412 125.001 37.3006 122.657 37.9166C116.312 39.5844 116.823 39.3041 111.105 44.2449C107.217 47.6038 102.952 52.3059 100.997 55.3877C99.216 58.1944 99.5513 58.27 97.3833 54.5709L95.5577 51.4564L96.3914 50.3948C98.1955 48.0974 104.051 42.8529 110.636 37.6374C118.506 31.4043 118.155 31.6389 118.261 32.5453L118.357 33.3679L120.507 32.9258ZM93.1616 34.7002C93.3609 35.4359 93.6247 36.7593 93.7476 37.6408L93.9716 39.2438L92.5904 39.9815C91.8308 40.3875 90.0184 41.4041 88.5632 42.2407L85.9167 43.7621L89.6257 47.7644C94.974 53.5359 95.2898 54.2156 93.8204 56.7946L93.0653 58.1197L92.0731 56.5877C90.3095 53.8642 85.8391 49.46 82.6734 47.3273L81.8394 46.7652L78.0204 50.4575C75.9202 52.4886 73.243 55.2776 72.0707 56.6555L69.9396 59.1608L68.9458 57.0322C68.399 55.8615 67.6613 54.4706 67.306 53.9409C66.9511 53.4111 66.6607 52.9212 66.6607 52.8524C66.6607 52.7832 68.7623 50.6655 71.331 48.1465C76.6088 42.9706 76.5466 43.3312 72.2973 42.5468L70.0715 42.136L68.9744 38.6394C67.5028 33.9485 68.5178 33.8432 76.431 37.8645C79.2565 39.3004 80.5016 39.777 80.7461 39.5172C81.2952 38.9339 92.1389 33.16 92.4858 33.2664C92.6584 33.3192 92.9627 33.9645 93.1616 34.7002ZM58.8196 36.0154C60.0621 38.8725 60.11 39.1269 59.4547 39.3941C59.069 39.5513 59.1216 39.841 59.755 41.0499C60.9305 43.2931 62.7763 49.7406 64.5415 57.7706L64.7475 58.7081H62.3472H59.9466L59.6312 57.4297C59.4576 56.7268 59.214 55.6911 59.0898 55.1286C58.4561 52.2592 57.4064 50.4613 56.4781 50.6546C55.9897 50.7565 54.793 50.9358 53.8191 51.0534C52.4101 51.2235 47.8155 52.7167 42.2332 54.8187C41.8397 54.967 41.4871 54.5041 40.7891 52.9233L39.8659 50.8318L37.3549 53.4793C35.9741 54.9356 34.1078 57.0912 33.2076 58.2697C31.2813 60.7917 31.5505 60.7569 29.8235 58.7084L28.4452 57.0735L33.0218 52.0598C40.8665 43.4659 47.5434 37.6497 52.3809 35.1969C57.1362 32.7857 57.4314 32.8235 58.8196 36.0154ZM31.0323 36.6635C7.24234 55.3887 10.7115 76.6134 39.0066 85.4518C42.2665 86.47 43.27 86.4888 40.5806 85.4811C17.7135 76.9124 13.3936 55.1235 31.0596 37.4568C32.6836 35.8327 33.9576 34.5052 33.8905 34.5066C33.8238 34.5083 32.5373 35.4788 31.0323 36.6635ZM48.842 42.4647C46.8107 43.502 42.2524 47.5503 42.6452 47.9675C42.7546 48.0838 51.9682 45.5996 54.0656 44.8885C55.3142 44.4651 53.348 41.3219 51.835 41.3219C51.4191 41.3219 50.0723 41.836 48.842 42.4647ZM112.555 58.5448C113.272 59.3558 113.284 59.4366 112.765 59.9879C111.914 60.8919 110.272 59.4898 110.723 58.2431C111.011 57.4444 111.679 57.5541 112.555 58.5448ZM75.004 60.0717C74.7444 61.0338 74.781 61.0944 75.6237 61.0944C76.9865 61.0944 76.639 62.7165 75.244 62.8654C74.3934 62.9561 74.2137 63.1658 73.8389 64.5035C73.2705 66.5325 73.2738 66.5489 74.2018 66.5489C75.0101 66.5489 75.1911 66.9979 74.8092 68.055C73.8931 70.591 70.9537 67.92 71.641 65.1764C72.2228 62.8535 72.2225 62.799 71.6346 62.799C71.3699 62.799 71.1533 62.6582 71.1533 62.486C71.1533 61.7047 71.5951 61.0944 72.1602 61.0944C72.5001 61.0944 72.8457 60.8643 72.9282 60.5831C73.0109 60.3018 73.1464 59.8416 73.2291 59.5604C73.5626 58.4265 75.3121 58.9304 75.004 60.0717ZM45.3061 61.1493C46.4635 61.7094 46.3644 62.6885 45.1206 62.9786C44.473 63.13 44.034 63.0686 43.881 62.8054C43.536 62.2123 42.1372 62.5262 42.0117 63.2251C41.9354 63.6499 42.1122 63.8217 42.625 63.8217C43.5119 63.8217 44.5189 64.7421 44.5189 65.5528C44.5189 68.0281 39.6766 69.8785 37.963 68.0581C36.8161 66.8397 38.2849 65.6499 39.8428 66.5356C40.7901 67.0742 42.0782 66.8717 42.2052 66.164C42.271 65.7972 42.0002 65.5276 41.4081 65.3697C39.5797 64.8822 39.2325 63.8708 40.3675 62.3377C41.3821 60.9673 43.752 60.3969 45.3061 61.1493ZM54.3415 61.692C56.4607 64.6576 50.9195 70.2552 47.6557 68.4464C46.7886 67.9657 46.7735 67.9766 45.8907 69.7268C45.0872 71.3195 42.9144 72.5962 42.9144 71.4757C42.9144 70.1553 48.5786 61.0944 49.4039 61.0944C49.9212 61.0944 50.2479 61.2407 50.141 61.4244C50.0351 61.6061 50.4237 61.5294 51.0045 61.254C52.2522 60.6625 53.7459 60.8585 54.3415 61.692ZM61.9702 61.0791C66.3366 62.8429 61.5235 70.0636 56.9517 68.6083C56.1921 68.3666 55.5879 67.9071 55.3742 67.409C54.0094 64.2263 58.6756 59.7485 61.9702 61.0791ZM70.5115 61.2369C70.5115 62.2978 70.0943 62.799 69.2115 62.799C67.9077 62.799 66.8491 64.015 66.0202 66.4637C65.3293 68.504 63.4245 69.7735 63.4617 68.1682C63.5256 65.4185 67.6234 58.747 67.6234 61.3924C67.6234 61.5877 68.0043 61.5247 68.5059 61.2468C69.6332 60.6223 70.5115 60.6178 70.5115 61.2369ZM85.1225 61.2475C85.7345 61.5192 86.2354 61.9692 86.2354 62.2474C86.2354 62.9694 85.0067 63.2864 84.1329 62.7894C83.2986 62.3152 82.2624 62.5798 82.4623 63.2166C82.5342 63.446 83.0155 63.7262 83.5318 63.8391C86.6583 64.5226 87.1641 67.2502 84.3928 68.4805C82.6391 69.2588 79.4966 68.221 79.4966 66.8639C79.4966 66.3178 81.3652 65.8998 81.5477 66.4054C81.6543 66.6999 82.1757 66.8898 82.8795 66.8898C84.4551 66.8898 84.2725 65.9274 82.5788 65.3053C80.8902 64.6845 80.4593 64.2468 80.4593 63.1511C80.4593 61.1947 82.8265 60.2282 85.1225 61.2475ZM94.0171 62.1281C94.5678 62.7659 94.8996 63.5333 94.8996 64.168V65.1853H92.172C90.1478 65.1853 89.4444 65.2995 89.4444 65.6285C89.4444 66.8493 91.5802 67.3432 92.8324 66.4115C93.349 66.027 93.6176 66.0147 94.2036 66.3478L94.9323 66.762L94.0951 67.6514C91.6377 70.262 86.8342 68.0622 87.3284 64.5526C87.828 61.0055 91.8042 59.5638 94.0171 62.1281ZM101.131 60.9605C102.147 61.3747 101.752 62.799 100.621 62.799C98.9256 62.799 98.4294 63.583 98.4294 66.2608V68.5943H97.2617H96.0936L96.2961 66.8046C96.4075 65.8204 96.4999 64.1125 96.5012 63.0096L96.5041 61.0048L97.7469 61.1817C98.4304 61.2792 99.1884 61.225 99.4316 61.0614C99.9566 60.7078 100.441 60.6792 101.131 60.9605ZM119.781 61.5829C121.196 62.5678 120.167 63.5507 118.543 62.7645C117.459 62.2399 116.484 62.5971 117.045 63.3144C117.263 63.5933 117.794 63.8217 118.225 63.8217C120.655 63.8217 122.876 66.9283 121.386 68.2422C120.064 69.4077 115.597 68.3639 115.597 66.8898C115.597 66.2735 116.975 66.0007 117.463 66.5199C117.655 66.7234 118.226 66.8898 118.733 66.8898C120.291 66.8898 119.713 65.8129 117.891 65.3189C115.953 64.7939 114.731 63.6478 114.861 62.4771C115.047 60.7985 117.908 60.2786 119.781 61.5829ZM105.234 63.5316L106.26 65.9687L107.024 63.5316C107.814 61.0133 110.532 59.377 109.798 61.8615C107.368 70.0889 106.234 70.6408 103.664 64.8471L101.999 61.0944H103.104C104.164 61.0944 104.249 61.1926 105.234 63.5316ZM113.411 63.8217C114.052 68.1239 113.999 68.5943 112.87 68.5943C112.32 68.5943 111.902 68.4116 111.896 68.1682C111.889 67.934 111.697 66.2387 111.469 64.4009L111.054 61.06L112.042 61.1623C113.01 61.2628 113.038 61.3174 113.411 63.8217ZM89.9257 63.1399C89.3513 63.8142 89.3651 63.8217 91.1595 63.8217C93.013 63.8217 93.4623 63.4412 92.3536 62.8109C91.407 62.2729 90.5675 62.3865 89.9257 63.1399ZM49.161 63.9355C48.5494 64.5853 48.0488 65.3438 48.0488 65.621C48.0488 67.196 50.7337 67.1936 51.9008 65.6172C53.7087 63.176 51.2795 61.6849 49.161 63.9355ZM58.217 63.7552C57.0778 65.0182 57.0521 66.4552 58.1631 66.7514C59.9611 67.2307 61.9006 65.2702 61.3733 63.506C61.047 62.4134 59.3029 62.5511 58.217 63.7552Z" fill="white"/>
</svg>
