<svg width="2048" height="1154" viewBox="0 0 2048 1154" fill="none" xmlns="http://www.w3.org/2000/svg">
<rect width="2048" height="1154" fill="black"/>
<path fill-rule="evenodd" clip-rule="evenodd" d="M1037.53 336.455C952.036 342.672 889.978 392.392 902.643 444.529C919.234 512.832 1066.91 514.995 1127.67 447.825C1177.15 393.124 1126.08 330.017 1037.53 336.455ZM1062.48 347.361C1165.06 360.007 1151.72 457.265 1043.95 482.42C931.226 508.73 866.94 424.399 957.853 369.48C977.361 357.696 1001.56 350.146 1030.13 346.927C1035.28 346.348 1056.57 346.633 1062.48 347.361ZM1034.08 364.373C1009.58 366.107 973.989 377.252 965.007 386.001C964.329 386.662 962.016 388.468 959.866 390.015C929.159 412.112 928.756 443.941 958.986 459.659C961.921 461.185 964.248 462.672 964.156 462.963C963.784 464.146 979.479 467.879 988.899 468.85C1039.94 474.108 1098.26 450.048 1113.34 417.51C1115.66 412.505 1114.96 415.668 1112.53 421.172C1109.21 428.684 1103.61 436.155 1096 443.221C1093.04 445.968 1094.97 444.816 1100.19 440.721C1136.24 412.443 1129.46 378.77 1085.18 366.141C1080.49 364.805 1078.64 364.771 1082.86 366.099C1092.14 369.017 1103.74 377.155 1108.94 384.386L1111.25 387.599L1107.8 384.183C1092.98 369.514 1065.56 362.145 1034.08 364.373ZM1086.28 386.486C1092.29 385.253 1095.18 385.793 1098.24 388.731C1101.22 391.579 1101.88 397.262 1099.41 398.729C1098.8 399.088 1099.06 399.464 1100.69 400.61C1107.01 405.038 1105.36 415.63 1098.03 417.709C1096.91 418.026 1093.11 419.188 1089.59 420.291C1083.56 422.174 1077.78 423.473 1072.49 424.13L1070.2 424.415L1069.61 420.905C1069.29 418.974 1068.93 417.011 1068.81 416.542C1068.63 415.852 1069.13 415.621 1071.44 415.335C1083.81 413.796 1096.72 409.727 1097.5 407.119C1097.92 405.731 1096.6 404.499 1095.06 404.833C1094.49 404.956 1092.47 405.199 1090.57 405.373C1088.67 405.548 1086.43 405.815 1085.59 405.967C1084.28 406.203 1081.52 400.349 1082.58 399.581C1082.64 399.543 1084.57 398.984 1086.87 398.339C1091.33 397.092 1094.27 395.532 1094.27 394.408C1094.27 393.256 1093.19 393.194 1089.59 394.139C1079.83 396.696 1080.62 396.266 1071.82 403.842C1065.85 408.992 1059.29 416.202 1056.28 420.928C1053.54 425.231 1054.06 425.347 1050.73 419.675L1047.92 414.9L1049.2 413.272C1051.98 409.749 1060.98 401.708 1071.1 393.711C1083.2 384.153 1082.66 384.513 1082.83 385.903L1082.97 387.164L1086.28 386.486ZM1044.24 389.207C1044.54 390.335 1044.95 392.364 1045.14 393.716L1045.48 396.174L1043.36 397.305C1042.19 397.928 1039.4 399.486 1037.17 400.769L1033.1 403.102L1038.8 409.239C1047.02 418.088 1047.51 419.131 1045.25 423.085L1044.09 425.117L1042.56 422.768C1039.85 418.592 1032.98 411.839 1028.11 408.569L1026.83 407.707L1020.96 413.368C1017.73 416.483 1013.61 420.759 1011.81 422.872L1008.53 426.713L1007 423.449C1006.16 421.654 1005.03 419.522 1004.48 418.709C1003.94 417.897 1003.49 417.146 1003.49 417.04C1003.49 416.934 1006.72 413.687 1010.67 409.825C1018.79 401.888 1018.69 402.441 1012.16 401.238L1008.73 400.609L1007.05 395.247C1004.79 388.054 1006.35 387.893 1018.51 394.059C1022.86 396.261 1024.77 396.991 1025.15 396.593C1025.99 395.699 1042.66 386.845 1043.2 387.008C1043.46 387.089 1043.93 388.079 1044.24 389.207ZM991.435 391.224C993.346 395.605 993.419 395.995 992.412 396.404C991.819 396.645 991.899 397.09 992.873 398.943C994.681 402.383 997.519 412.269 1000.23 424.582L1000.55 426.019H996.859H993.168L992.683 424.059C992.416 422.981 992.042 421.393 991.851 420.531C990.876 416.131 989.262 413.374 987.835 413.67C987.084 413.827 985.244 414.102 983.747 414.282C981.58 414.543 974.516 416.832 965.933 420.055C965.329 420.283 964.786 419.573 963.713 417.149L962.294 413.942L958.433 418.002C956.31 420.235 953.441 423.54 952.057 425.347C949.095 429.214 949.509 429.161 946.854 426.02L944.735 423.513L951.771 415.825C963.832 402.648 974.098 393.73 981.536 389.969C988.847 386.271 989.301 386.329 991.435 391.224ZM948.712 392.217C912.135 420.929 917.469 453.474 960.973 467.026C965.985 468.587 967.528 468.616 963.393 467.071C928.235 453.932 921.593 420.523 948.754 393.434C951.251 390.943 953.21 388.908 953.107 388.91C953.004 388.913 951.026 390.401 948.712 392.217ZM976.095 401.112C972.972 402.703 965.963 408.91 966.567 409.55C966.735 409.728 980.901 405.919 984.126 404.829C986.046 404.18 983.023 399.36 980.696 399.36C980.057 399.36 977.986 400.149 976.095 401.112ZM1074.05 425.769C1075.16 427.012 1075.17 427.136 1074.38 427.981C1073.07 429.368 1070.54 427.218 1071.24 425.306C1071.68 424.081 1072.71 424.25 1074.05 425.769ZM1016.32 428.11C1015.92 429.585 1015.98 429.678 1017.27 429.678C1019.37 429.678 1018.83 432.165 1016.69 432.394C1015.38 432.533 1015.1 432.854 1014.53 434.905C1013.65 438.017 1013.66 438.042 1015.09 438.042C1016.33 438.042 1016.61 438.73 1016.02 440.351C1014.61 444.24 1010.09 440.144 1011.15 435.937C1012.04 432.375 1012.04 432.292 1011.14 432.292C1010.73 432.292 1010.4 432.076 1010.4 431.812C1010.4 430.614 1011.08 429.678 1011.95 429.678C1012.47 429.678 1013 429.325 1013.13 428.894C1013.25 428.463 1013.46 427.757 1013.59 427.326C1014.1 425.587 1016.79 426.36 1016.32 428.11ZM970.658 429.762C972.438 430.621 972.285 432.122 970.373 432.567C969.377 432.799 968.702 432.705 968.467 432.302C967.937 431.392 965.786 431.874 965.593 432.945C965.476 433.596 965.747 433.86 966.536 433.86C967.9 433.86 969.448 435.271 969.448 436.514C969.448 440.31 962.003 443.147 959.368 440.356C957.605 438.488 959.863 436.663 962.258 438.021C963.715 438.847 965.695 438.537 965.891 437.452C965.992 436.889 965.575 436.476 964.665 436.234C961.854 435.486 961.32 433.935 963.065 431.584C964.625 429.483 968.269 428.609 970.658 429.762ZM984.55 430.594C987.808 435.142 979.289 443.725 974.271 440.951C972.937 440.214 972.914 440.231 971.557 442.914C970.322 445.357 966.981 447.314 966.981 445.596C966.981 443.572 975.69 429.678 976.959 429.678C977.754 429.678 978.256 429.902 978.092 430.184C977.929 430.463 978.526 430.345 979.419 429.923C981.338 429.016 983.634 429.316 984.55 430.594ZM996.279 429.655C1002.99 432.359 995.592 443.431 988.563 441.199C987.395 440.829 986.466 440.124 986.138 439.36C984.039 434.48 991.214 427.614 996.279 429.655ZM1009.41 429.897C1009.41 431.523 1008.77 432.292 1007.41 432.292C1005.41 432.292 1003.78 434.156 1002.51 437.911C1001.44 441.039 998.515 442.986 998.572 440.525C998.671 436.308 1004.97 426.079 1004.97 430.135C1004.97 430.435 1005.56 430.338 1006.33 429.912C1008.06 428.954 1009.41 428.947 1009.41 429.897ZM1031.88 429.913C1032.82 430.329 1033.59 431.019 1033.59 431.446C1033.59 432.553 1031.7 433.039 1030.35 432.277C1029.07 431.55 1027.48 431.956 1027.79 432.932C1027.9 433.284 1028.64 433.714 1029.43 433.887C1034.24 434.935 1035.01 439.117 1030.75 441.003C1028.06 442.197 1023.23 440.606 1023.23 438.525C1023.23 437.687 1026.1 437.046 1026.38 437.822C1026.54 438.273 1027.35 438.564 1028.43 438.564C1030.85 438.564 1030.57 437.089 1027.96 436.135C1025.37 435.183 1024.71 434.512 1024.71 432.832C1024.71 429.832 1028.35 428.35 1031.88 429.913ZM1045.55 431.263C1046.4 432.241 1046.91 433.418 1046.91 434.391V435.951H1042.71C1039.6 435.951 1038.52 436.126 1038.52 436.63C1038.52 438.502 1041.8 439.26 1043.73 437.831C1044.52 437.241 1044.94 437.223 1045.84 437.733L1046.96 438.368L1045.67 439.732C1041.89 443.735 1034.51 440.362 1035.27 434.981C1036.04 429.542 1042.15 427.331 1045.55 431.263ZM1056.49 429.473C1058.05 430.108 1057.44 432.292 1055.7 432.292C1053.1 432.292 1052.34 433.494 1052.34 437.6V441.178H1050.54H1048.74L1049.06 438.434C1049.23 436.925 1049.37 434.306 1049.37 432.615L1049.38 429.541L1051.29 429.812C1052.34 429.961 1053.5 429.878 1053.88 429.627C1054.68 429.085 1055.43 429.041 1056.49 429.473ZM1085.16 430.427C1087.34 431.937 1085.76 433.444 1083.26 432.239C1081.59 431.434 1080.09 431.982 1080.96 433.082C1081.29 433.51 1082.11 433.86 1082.77 433.86C1086.51 433.86 1089.92 438.623 1087.63 440.638C1085.6 442.425 1078.73 440.825 1078.73 438.564C1078.73 437.619 1080.85 437.201 1081.6 437.997C1081.89 438.309 1082.77 438.564 1083.55 438.564C1085.95 438.564 1085.06 436.913 1082.26 436.156C1079.28 435.351 1077.4 433.593 1077.6 431.798C1077.88 429.224 1082.28 428.427 1085.16 430.427ZM1062.8 433.415L1064.37 437.152L1065.55 433.415C1066.76 429.554 1070.94 427.045 1069.82 430.854C1066.08 443.47 1064.33 444.316 1060.38 435.432L1057.82 429.678H1059.52C1061.15 429.678 1061.28 429.829 1062.8 433.415ZM1075.37 433.86C1076.36 440.457 1076.27 441.178 1074.54 441.178C1073.69 441.178 1073.05 440.898 1073.04 440.525C1073.03 440.165 1072.73 437.566 1072.38 434.748L1071.75 429.625L1073.27 429.782C1074.75 429.936 1074.8 430.02 1075.37 433.86ZM1039.26 432.814C1038.38 433.848 1038.4 433.86 1041.16 433.86C1044.01 433.86 1044.7 433.277 1042.99 432.31C1041.54 431.485 1040.25 431.659 1039.26 432.814ZM976.585 434.034C975.645 435.031 974.875 436.194 974.875 436.619C974.875 439.034 979.003 439.03 980.797 436.613C983.577 432.87 979.842 430.583 976.585 434.034ZM990.509 433.758C988.757 435.695 988.718 437.898 990.426 438.352C993.19 439.087 996.172 436.081 995.361 433.376C994.86 431.701 992.178 431.912 990.509 433.758Z" fill="white"/>
<path d="M428.4 613.4C420.067 613.4 413.4 611 408.4 606.2C403.467 601.333 401 594.267 401 585V569C401 559.733 403.467 552.7 408.4 547.9C413.4 543.033 420.067 540.6 428.4 540.6C436.8 540.6 443.467 543.033 448.4 547.9C453.4 552.7 455.9 559.733 455.9 569V585C455.9 594.267 453.4 601.333 448.4 606.2C443.467 611 436.8 613.4 428.4 613.4ZM428.4 605.9C434.467 605.9 439.167 604.1 442.5 600.5C445.833 596.833 447.5 591.767 447.5 585.3V568.7C447.5 562.233 445.833 557.2 442.5 553.6C439.167 549.933 434.467 548.1 428.4 548.1C422.4 548.1 417.733 549.933 414.4 553.6C411.067 557.2 409.4 562.233 409.4 568.7V585.3C409.4 591.767 411.067 596.833 414.4 600.5C417.733 604.1 422.4 605.9 428.4 605.9ZM492.695 613.4C487.961 613.4 483.695 612.4 479.895 610.4C476.161 608.333 473.195 605.4 470.995 601.6C468.861 597.8 467.795 593.3 467.795 588.1V587C467.795 581.733 468.861 577.233 470.995 573.5C473.195 569.7 476.161 566.8 479.895 564.8C483.695 562.733 487.961 561.7 492.695 561.7C497.361 561.7 501.328 562.567 504.595 564.3C507.928 566.033 510.528 568.333 512.395 571.2C514.328 574.067 515.561 577.133 516.095 580.4L508.395 582C508.061 579.6 507.261 577.4 505.995 575.4C504.795 573.4 503.095 571.8 500.895 570.6C498.695 569.4 495.995 568.8 492.795 568.8C489.528 568.8 486.595 569.533 483.995 571C481.461 572.467 479.428 574.567 477.895 577.3C476.428 580.033 475.695 583.3 475.695 587.1V588C475.695 591.8 476.428 595.067 477.895 597.8C479.428 600.533 481.461 602.633 483.995 604.1C486.595 605.567 489.528 606.3 492.795 606.3C497.661 606.3 501.361 605.033 503.895 602.5C506.495 599.967 508.095 596.833 508.695 593.1L516.495 594.8C515.761 598 514.428 601.033 512.495 603.9C510.561 606.767 507.928 609.067 504.595 610.8C501.328 612.533 497.361 613.4 492.695 613.4ZM529.96 612V542H537.86V570.9H539.26C539.927 569.433 540.927 568.067 542.26 566.8C543.66 565.467 545.427 564.367 547.56 563.5C549.76 562.633 552.527 562.2 555.86 562.2C559.527 562.2 562.793 563 565.66 564.6C568.593 566.133 570.927 568.4 572.66 571.4C574.393 574.333 575.26 578 575.26 582.4V612H567.36V583C567.36 578.133 566.127 574.6 563.66 572.4C561.26 570.2 557.993 569.1 553.86 569.1C549.127 569.1 545.26 570.633 542.26 573.7C539.327 576.767 537.86 581.333 537.86 587.4V612H529.96ZM591.288 612V563.1H598.988V569.1H600.388C601.255 566.967 602.588 565.4 604.388 564.4C606.188 563.4 608.555 562.9 611.488 562.9H617.288V570.1H610.988C607.455 570.1 604.588 571.1 602.388 573.1C600.255 575.033 599.188 578.067 599.188 582.2V612H591.288ZM642.323 613.4C638.923 613.4 635.823 612.8 633.023 611.6C630.223 610.4 628.023 608.667 626.423 606.4C624.823 604.133 624.023 601.367 624.023 598.1C624.023 594.767 624.823 592.033 626.423 589.9C628.023 587.7 630.223 586.067 633.023 585C635.823 583.867 638.957 583.3 642.423 583.3H658.923V579.7C658.923 576.233 657.89 573.5 655.823 571.5C653.823 569.5 650.823 568.5 646.823 568.5C642.89 568.5 639.823 569.467 637.623 571.4C635.423 573.267 633.923 575.8 633.123 579L625.723 576.6C626.523 573.867 627.79 571.4 629.523 569.2C631.257 566.933 633.557 565.133 636.423 563.8C639.357 562.4 642.857 561.7 646.923 561.7C653.19 561.7 658.057 563.333 661.523 566.6C664.99 569.8 666.723 574.333 666.723 580.2V602.3C666.723 604.3 667.657 605.3 669.523 605.3H674.023V612H667.123C664.923 612 663.157 611.4 661.823 610.2C660.49 608.933 659.823 607.267 659.823 605.2V604.7H658.623C657.89 605.967 656.89 607.3 655.623 608.7C654.423 610.033 652.757 611.133 650.623 612C648.49 612.933 645.723 613.4 642.323 613.4ZM643.223 606.6C647.89 606.6 651.657 605.233 654.523 602.5C657.457 599.7 658.923 595.8 658.923 590.8V589.7H642.723C639.59 589.7 636.99 590.4 634.923 591.8C632.923 593.133 631.923 595.167 631.923 597.9C631.923 600.633 632.957 602.767 635.023 604.3C637.157 605.833 639.89 606.6 643.223 606.6ZM684.843 612V563.1H692.543V571.4H693.943C695.01 569.067 696.81 566.967 699.343 565.1C701.943 563.167 705.743 562.2 710.743 562.2C714.41 562.2 717.676 562.967 720.543 564.5C723.476 566.033 725.81 568.3 727.543 571.3C729.276 574.3 730.143 578 730.143 582.4V612H722.243V583C722.243 578.133 721.01 574.6 718.543 572.4C716.143 570.2 712.876 569.1 708.743 569.1C704.01 569.1 700.143 570.633 697.143 573.7C694.21 576.767 692.743 581.333 692.743 587.4V612H684.843ZM761.171 613.4C757.771 613.4 754.671 612.8 751.871 611.6C749.071 610.4 746.871 608.667 745.271 606.4C743.671 604.133 742.871 601.367 742.871 598.1C742.871 594.767 743.671 592.033 745.271 589.9C746.871 587.7 749.071 586.067 751.871 585C754.671 583.867 757.804 583.3 761.271 583.3H777.771V579.7C777.771 576.233 776.738 573.5 774.671 571.5C772.671 569.5 769.671 568.5 765.671 568.5C761.738 568.5 758.671 569.467 756.471 571.4C754.271 573.267 752.771 575.8 751.971 579L744.571 576.6C745.371 573.867 746.638 571.4 748.371 569.2C750.104 566.933 752.404 565.133 755.271 563.8C758.204 562.4 761.704 561.7 765.771 561.7C772.038 561.7 776.904 563.333 780.371 566.6C783.838 569.8 785.571 574.333 785.571 580.2V602.3C785.571 604.3 786.504 605.3 788.371 605.3H792.871V612H785.971C783.771 612 782.004 611.4 780.671 610.2C779.338 608.933 778.671 607.267 778.671 605.2V604.7H777.471C776.738 605.967 775.738 607.3 774.471 608.7C773.271 610.033 771.604 611.133 769.471 612C767.338 612.933 764.571 613.4 761.171 613.4ZM762.071 606.6C766.738 606.6 770.504 605.233 773.371 602.5C776.304 599.7 777.771 595.8 777.771 590.8V589.7H761.571C758.438 589.7 755.838 590.4 753.771 591.8C751.771 593.133 750.771 595.167 750.771 597.9C750.771 600.633 751.804 602.767 753.871 604.3C756.004 605.833 758.738 606.6 762.071 606.6ZM851.974 613.4C847.041 613.4 842.674 612.367 838.874 610.3C835.141 608.233 832.208 605.333 830.074 601.6C828.008 597.8 826.974 593.333 826.974 588.2V586.9C826.974 581.833 828.008 577.4 830.074 573.6C832.208 569.8 835.141 566.867 838.874 564.8C842.674 562.733 847.041 561.7 851.974 561.7C856.908 561.7 861.241 562.733 864.974 564.8C868.774 566.867 871.708 569.8 873.774 573.6C875.908 577.4 876.974 581.833 876.974 586.9V588.2C876.974 593.333 875.908 597.8 873.774 601.6C871.708 605.333 868.774 608.233 864.974 610.3C861.241 612.367 856.908 613.4 851.974 613.4ZM851.974 606.3C857.174 606.3 861.308 604.667 864.374 601.4C867.508 598.067 869.074 593.6 869.074 588V587.1C869.074 581.5 867.508 577.067 864.374 573.8C861.308 570.467 857.174 568.8 851.974 568.8C846.841 568.8 842.708 570.467 839.574 573.8C836.441 577.067 834.874 581.5 834.874 587.1V588C834.874 593.6 836.441 598.067 839.574 601.4C842.708 604.667 846.841 606.3 851.974 606.3ZM910.891 613.4C904.824 613.4 899.691 612 895.491 609.2C891.357 606.4 888.857 601.967 887.991 595.9L895.491 594.2C896.024 597.4 897.024 599.933 898.491 601.8C899.957 603.6 901.757 604.9 903.891 605.7C906.091 606.433 908.424 606.8 910.891 606.8C914.557 606.8 917.457 606.067 919.591 604.6C921.724 603.133 922.791 601.167 922.791 598.7C922.791 596.167 921.757 594.4 919.691 593.4C917.691 592.333 914.924 591.467 911.391 590.8L907.291 590.1C904.157 589.567 901.291 588.733 898.691 587.6C896.091 586.467 894.024 584.933 892.491 583C890.957 581.067 890.191 578.633 890.191 575.7C890.191 571.3 891.891 567.867 895.291 565.4C898.691 562.933 903.191 561.7 908.791 561.7C914.324 561.7 918.791 562.967 922.191 565.5C925.657 567.967 927.891 571.467 928.891 576L921.491 577.9C920.891 574.367 919.457 571.9 917.191 570.5C914.924 569.033 912.124 568.3 908.791 568.3C905.457 568.3 902.824 568.933 900.891 570.2C898.957 571.4 897.991 573.2 897.991 575.6C897.991 577.933 898.891 579.667 900.691 580.8C902.557 581.867 905.024 582.667 908.091 583.2L912.191 583.9C915.657 584.5 918.757 585.333 921.491 586.4C924.291 587.4 926.491 588.867 928.091 590.8C929.757 592.733 930.591 595.267 930.591 598.4C930.591 603.2 928.791 606.9 925.191 609.5C921.657 612.1 916.891 613.4 910.891 613.4ZM966.525 613.4C961.592 613.4 957.225 612.367 953.425 610.3C949.692 608.233 946.758 605.333 944.625 601.6C942.558 597.8 941.525 593.333 941.525 588.2V586.9C941.525 581.833 942.558 577.4 944.625 573.6C946.758 569.8 949.692 566.867 953.425 564.8C957.225 562.733 961.592 561.7 966.525 561.7C971.458 561.7 975.792 562.733 979.525 564.8C983.325 566.867 986.258 569.8 988.325 573.6C990.458 577.4 991.525 581.833 991.525 586.9V588.2C991.525 593.333 990.458 597.8 988.325 601.6C986.258 605.333 983.325 608.233 979.525 610.3C975.792 612.367 971.458 613.4 966.525 613.4ZM966.525 606.3C971.725 606.3 975.858 604.667 978.925 601.4C982.058 598.067 983.625 593.6 983.625 588V587.1C983.625 581.5 982.058 577.067 978.925 573.8C975.858 570.467 971.725 568.8 966.525 568.8C961.392 568.8 957.258 570.467 954.125 573.8C950.992 577.067 949.425 581.5 949.425 587.1V588C949.425 593.6 950.992 598.067 954.125 601.4C957.258 604.667 961.392 606.3 966.525 606.3ZM1032.84 613.4C1027.77 613.4 1023.81 612.433 1020.94 610.5C1018.14 608.567 1016.11 606.367 1014.84 603.9H1013.44V612H1005.74V542H1013.64V570.8H1015.04C1015.84 569.267 1016.97 567.833 1018.44 566.5C1019.91 565.1 1021.81 563.967 1024.14 563.1C1026.54 562.167 1029.44 561.7 1032.84 561.7C1037.11 561.7 1040.97 562.733 1044.44 564.8C1047.97 566.8 1050.77 569.7 1052.84 573.5C1054.91 577.233 1055.94 581.7 1055.94 586.9V588.2C1055.94 593.4 1054.87 597.9 1052.74 601.7C1050.67 605.5 1047.87 608.4 1044.34 610.4C1040.87 612.4 1037.04 613.4 1032.84 613.4ZM1030.74 606.4C1035.81 606.4 1039.91 604.8 1043.04 601.6C1046.24 598.333 1047.84 593.8 1047.84 588V587.1C1047.84 581.3 1046.24 576.8 1043.04 573.6C1039.91 570.333 1035.81 568.7 1030.74 568.7C1025.74 568.7 1021.61 570.333 1018.34 573.6C1015.14 576.8 1013.54 581.3 1013.54 587.1V588C1013.54 593.8 1015.14 598.333 1018.34 601.6C1021.61 604.8 1025.74 606.4 1030.74 606.4ZM1070.1 612V563.1H1077.8V571.4H1079.2C1080.26 569.067 1082.06 566.967 1084.6 565.1C1087.2 563.167 1091 562.2 1096 562.2C1099.66 562.2 1102.93 562.967 1105.8 564.5C1108.73 566.033 1111.06 568.3 1112.8 571.3C1114.53 574.3 1115.4 578 1115.4 582.4V612H1107.5V583C1107.5 578.133 1106.26 574.6 1103.8 572.4C1101.4 570.2 1098.13 569.1 1094 569.1C1089.26 569.1 1085.4 570.633 1082.4 573.7C1079.46 576.767 1078 581.333 1078 587.4V612H1070.1ZM1136.54 632V625H1164.54C1166.48 625 1167.44 624 1167.44 622V604.2H1166.04C1165.38 605.6 1164.34 607 1162.94 608.4C1161.61 609.733 1159.84 610.833 1157.64 611.7C1155.44 612.5 1152.68 612.9 1149.34 612.9C1145.81 612.9 1142.54 612.133 1139.54 610.6C1136.61 609.067 1134.28 606.8 1132.54 603.8C1130.88 600.8 1130.04 597.133 1130.04 592.8V563.1H1137.94V592.2C1137.94 597 1139.14 600.5 1141.54 602.7C1144.01 604.9 1147.31 606 1151.44 606C1156.11 606 1159.94 604.467 1162.94 601.4C1165.94 598.333 1167.44 593.767 1167.44 587.7V563.1H1175.34V623.4C1175.34 626.067 1174.58 628.167 1173.04 629.7C1171.58 631.233 1169.41 632 1166.54 632H1136.54ZM1147.44 556.5L1155.14 542.9H1164.64L1155.04 556.5H1147.44ZM1214.37 613.4C1209.64 613.4 1205.37 612.4 1201.57 610.4C1197.84 608.333 1194.87 605.4 1192.67 601.6C1190.54 597.8 1189.47 593.3 1189.47 588.1V587C1189.47 581.733 1190.54 577.233 1192.67 573.5C1194.87 569.7 1197.84 566.8 1201.57 564.8C1205.37 562.733 1209.64 561.7 1214.37 561.7C1219.04 561.7 1223.01 562.567 1226.27 564.3C1229.61 566.033 1232.21 568.333 1234.07 571.2C1236.01 574.067 1237.24 577.133 1237.77 580.4L1230.07 582C1229.74 579.6 1228.94 577.4 1227.67 575.4C1226.47 573.4 1224.77 571.8 1222.57 570.6C1220.37 569.4 1217.67 568.8 1214.47 568.8C1211.21 568.8 1208.27 569.533 1205.67 571C1203.14 572.467 1201.11 574.567 1199.57 577.3C1198.11 580.033 1197.37 583.3 1197.37 587.1V588C1197.37 591.8 1198.11 595.067 1199.57 597.8C1201.11 600.533 1203.14 602.633 1205.67 604.1C1208.27 605.567 1211.21 606.3 1214.47 606.3C1219.34 606.3 1223.04 605.033 1225.57 602.5C1228.17 599.967 1229.77 596.833 1230.37 593.1L1238.17 594.8C1237.44 598 1236.11 601.033 1234.17 603.9C1232.24 606.767 1229.61 609.067 1226.27 610.8C1223.01 612.533 1219.04 613.4 1214.37 613.4ZM1251.64 612V542H1259.54V570.9H1260.94C1261.61 569.433 1262.61 568.067 1263.94 566.8C1265.34 565.467 1267.11 564.367 1269.24 563.5C1271.44 562.633 1274.21 562.2 1277.54 562.2C1281.21 562.2 1284.47 563 1287.34 564.6C1290.27 566.133 1292.61 568.4 1294.34 571.4C1296.07 574.333 1296.94 578 1296.94 582.4V612H1289.04V583C1289.04 578.133 1287.81 574.6 1285.34 572.4C1282.94 570.2 1279.67 569.1 1275.54 569.1C1270.81 569.1 1266.94 570.633 1263.94 573.7C1261.01 576.767 1259.54 581.333 1259.54 587.4V612H1251.64ZM1357.35 612.9C1353.82 612.9 1350.55 612.133 1347.55 610.6C1344.62 609.067 1342.28 606.8 1340.55 603.8C1338.88 600.733 1338.05 597.033 1338.05 592.7V563.1H1345.95V592.1C1345.95 596.967 1347.15 600.5 1349.55 602.7C1352.02 604.9 1355.32 606 1359.45 606C1364.12 606 1367.95 604.467 1370.95 601.4C1373.95 598.333 1375.45 593.767 1375.45 587.7V563.1H1383.35V612H1375.65V603.7H1374.25C1373.18 606.033 1371.35 608.167 1368.75 610.1C1366.15 611.967 1362.35 612.9 1357.35 612.9ZM1355.35 556.5L1363.05 542.9H1372.55L1362.95 556.5H1355.35ZM1420.58 613.4C1416.38 613.4 1412.52 612.4 1408.98 610.4C1405.45 608.4 1402.65 605.5 1400.58 601.7C1398.52 597.9 1397.48 593.4 1397.48 588.2V586.9C1397.48 581.7 1398.52 577.233 1400.58 573.5C1402.65 569.7 1405.42 566.8 1408.88 564.8C1412.42 562.733 1416.32 561.7 1420.58 561.7C1423.98 561.7 1426.85 562.167 1429.18 563.1C1431.58 563.967 1433.52 565.1 1434.98 566.5C1436.45 567.833 1437.58 569.267 1438.38 570.8H1439.78V542H1447.68V612H1439.98V603.9H1438.58C1437.25 606.367 1435.18 608.567 1432.38 610.5C1429.58 612.433 1425.65 613.4 1420.58 613.4ZM1422.68 606.4C1427.75 606.4 1431.85 604.8 1434.98 601.6C1438.18 598.333 1439.78 593.8 1439.78 588V587.1C1439.78 581.3 1438.18 576.8 1434.98 573.6C1431.85 570.333 1427.75 568.7 1422.68 568.7C1417.68 568.7 1413.55 570.333 1410.28 573.6C1407.08 576.8 1405.48 581.3 1405.48 587.1V588C1405.48 593.8 1407.08 598.333 1410.28 601.6C1413.55 604.8 1417.68 606.4 1422.68 606.4ZM1479.24 613.4C1475.84 613.4 1472.74 612.8 1469.94 611.6C1467.14 610.4 1464.94 608.667 1463.34 606.4C1461.74 604.133 1460.94 601.367 1460.94 598.1C1460.94 594.767 1461.74 592.033 1463.34 589.9C1464.94 587.7 1467.14 586.067 1469.94 585C1472.74 583.867 1475.87 583.3 1479.34 583.3H1495.84V579.7C1495.84 576.233 1494.8 573.5 1492.74 571.5C1490.74 569.5 1487.74 568.5 1483.74 568.5C1479.8 568.5 1476.74 569.467 1474.54 571.4C1472.34 573.267 1470.84 575.8 1470.04 579L1462.64 576.6C1463.44 573.867 1464.7 571.4 1466.44 569.2C1468.17 566.933 1470.47 565.133 1473.34 563.8C1476.27 562.4 1479.77 561.7 1483.84 561.7C1490.1 561.7 1494.97 563.333 1498.44 566.6C1501.9 569.8 1503.64 574.333 1503.64 580.2V602.3C1503.64 604.3 1504.57 605.3 1506.44 605.3H1510.94V612H1504.04C1501.84 612 1500.07 611.4 1498.74 610.2C1497.4 608.933 1496.74 607.267 1496.74 605.2V604.7H1495.54C1494.8 605.967 1493.8 607.3 1492.54 608.7C1491.34 610.033 1489.67 611.133 1487.54 612C1485.4 612.933 1482.64 613.4 1479.24 613.4ZM1480.14 606.6C1484.8 606.6 1488.57 605.233 1491.44 602.5C1494.37 599.7 1495.84 595.8 1495.84 590.8V589.7H1479.64C1476.5 589.7 1473.9 590.4 1471.84 591.8C1469.84 593.133 1468.84 595.167 1468.84 597.9C1468.84 600.633 1469.87 602.767 1471.94 604.3C1474.07 605.833 1476.8 606.6 1480.14 606.6ZM1512.16 632V625H1518.96C1520.96 625 1521.96 624 1521.96 622V563.1H1529.86V623.4C1529.86 626.067 1529.09 628.167 1527.56 629.7C1526.09 631.233 1523.96 632 1521.16 632H1512.16ZM1525.96 555.5C1524.22 555.5 1522.76 554.933 1521.56 553.8C1520.42 552.667 1519.86 551.233 1519.86 549.5C1519.86 547.7 1520.42 546.233 1521.56 545.1C1522.76 543.967 1524.22 543.4 1525.96 543.4C1527.69 543.4 1529.12 543.967 1530.26 545.1C1531.39 546.233 1531.96 547.7 1531.96 549.5C1531.96 551.233 1531.39 552.667 1530.26 553.8C1529.12 554.933 1527.69 555.5 1525.96 555.5ZM1569.06 613.4C1564.13 613.4 1559.76 612.367 1555.96 610.3C1552.23 608.233 1549.3 605.333 1547.16 601.6C1545.1 597.8 1544.06 593.333 1544.06 588.2V586.9C1544.06 581.833 1545.1 577.4 1547.16 573.6C1549.3 569.8 1552.23 566.867 1555.96 564.8C1559.76 562.733 1564.13 561.7 1569.06 561.7C1574 561.7 1578.33 562.733 1582.06 564.8C1585.86 566.867 1588.8 569.8 1590.86 573.6C1593 577.4 1594.06 581.833 1594.06 586.9V588.2C1594.06 593.333 1593 597.8 1590.86 601.6C1588.8 605.333 1585.86 608.233 1582.06 610.3C1578.33 612.367 1574 613.4 1569.06 613.4ZM1569.06 606.3C1574.26 606.3 1578.4 604.667 1581.46 601.4C1584.6 598.067 1586.16 593.6 1586.16 588V587.1C1586.16 581.5 1584.6 577.067 1581.46 573.8C1578.4 570.467 1574.26 568.8 1569.06 568.8C1563.93 568.8 1559.8 570.467 1556.66 573.8C1553.53 577.067 1551.96 581.5 1551.96 587.1V588C1551.96 593.6 1553.53 598.067 1556.66 601.4C1559.8 604.667 1563.93 606.3 1569.06 606.3ZM1618.63 612L1601.13 563.1H1609.53L1624.23 606.1H1625.63L1640.33 563.1H1648.73L1631.23 612H1618.63Z" fill="white"/>
</svg>
