<svg width="2048" height="1154" viewBox="0 0 2048 1154" fill="none" xmlns="http://www.w3.org/2000/svg">
<rect width="2048" height="1154" fill="black"/>
<path fill-rule="evenodd" clip-rule="evenodd" d="M1064.61 339.351C811.241 357.808 627.337 505.424 664.867 660.215C714.034 863.005 1151.66 869.426 1331.72 670.002C1478.35 507.597 1326.99 320.237 1064.61 339.351ZM1138.53 371.73C1442.53 409.276 1402.98 698.03 1083.61 772.712C749.572 850.825 559.067 600.452 828.48 437.4C886.288 402.415 957.992 379.999 1042.68 370.442C1057.93 368.721 1121.03 369.569 1138.53 371.73ZM1054.37 422.238C981.772 427.387 876.296 460.476 849.681 486.451C847.67 488.412 840.814 493.774 834.446 498.366C743.446 563.971 742.253 658.47 831.836 705.136C840.534 709.668 847.429 714.083 847.157 714.947C846.055 718.458 892.565 729.542 920.48 732.424C1071.75 748.036 1244.58 676.602 1289.26 579.998C1296.13 565.14 1294.04 574.53 1286.84 590.871C1277.01 613.175 1260.42 635.355 1237.86 656.333C1229.1 664.488 1234.82 661.069 1250.29 648.911C1357.12 564.955 1337.03 464.981 1205.79 427.487C1191.91 423.521 1186.42 423.42 1198.93 427.361C1226.41 436.025 1260.8 460.186 1276.2 481.657L1283.05 491.195L1272.82 481.053C1228.92 437.501 1147.65 415.622 1054.37 422.238ZM1209.06 487.891C1226.88 484.228 1235.42 485.833 1244.52 494.555C1253.34 503.011 1255.29 519.884 1247.96 524.238C1246.17 525.305 1246.93 526.422 1251.78 529.824C1270.49 542.97 1265.6 574.417 1243.88 580.591C1240.57 581.531 1229.31 584.979 1218.86 588.254C1201 593.846 1183.87 597.702 1168.21 599.654L1161.42 600.5L1159.67 590.078C1158.71 584.345 1157.63 578.516 1157.28 577.124C1156.75 575.075 1158.24 574.391 1165.08 573.54C1201.75 568.971 1240.01 556.891 1242.32 549.149C1243.55 545.028 1239.64 541.369 1235.07 542.362C1233.39 542.727 1227.41 543.448 1221.78 543.965C1216.15 544.483 1209.5 545.276 1207 545.728C1203.13 546.43 1194.97 529.049 1198.1 526.768C1198.26 526.655 1203.98 524.996 1210.81 523.082C1224.04 519.379 1232.75 514.747 1232.75 511.409C1232.75 507.991 1229.54 507.807 1218.86 510.611C1189.95 518.203 1192.27 516.927 1166.22 539.419C1148.51 554.711 1129.07 576.116 1120.17 590.146C1112.05 602.923 1113.58 603.267 1103.7 586.427L1095.38 572.249L1099.18 567.416C1107.4 556.958 1134.08 533.083 1164.09 509.34C1199.94 480.964 1198.34 482.032 1198.83 486.159L1199.27 489.904L1209.06 487.891ZM1084.47 495.969C1085.38 499.318 1086.58 505.342 1087.14 509.355L1088.16 516.653L1081.87 520.011C1078.4 521.859 1070.15 526.487 1063.52 530.296L1051.46 537.222L1068.36 555.442C1092.73 581.716 1094.16 584.81 1087.47 596.551L1084.03 602.583L1079.51 595.609C1071.47 583.21 1051.1 563.161 1036.68 553.452L1032.88 550.893L1015.48 567.702C1005.91 576.948 993.713 589.645 988.372 595.917L978.662 607.323L974.134 597.632C971.643 592.303 968.282 585.971 966.663 583.559C965.046 581.148 963.723 578.918 963.723 578.604C963.723 578.289 973.298 568.648 985.002 557.181C1009.05 533.618 1008.77 535.26 989.404 531.689L979.263 529.819L974.265 513.901C967.559 492.547 972.184 492.067 1008.24 510.374C1021.11 516.91 1026.79 519.08 1027.9 517.897C1030.4 515.242 1079.81 488.957 1081.39 489.441C1082.18 489.682 1083.56 492.619 1084.47 495.969ZM927.997 501.956C933.658 514.963 933.876 516.12 930.89 517.337C929.133 518.052 929.373 519.372 932.259 524.875C937.615 535.086 946.024 564.438 954.067 600.994L955.006 605.262H944.07H933.132L931.695 599.442C930.904 596.242 929.794 591.527 929.228 588.966C926.34 575.904 921.558 567.719 917.328 568.599C915.103 569.063 909.651 569.879 905.213 570.415C898.793 571.189 877.859 577.986 852.425 587.556C850.632 588.231 849.026 586.123 845.845 578.927L841.639 569.406L830.198 581.458C823.907 588.088 815.403 597.901 811.302 603.266C802.525 614.747 803.752 614.589 795.883 605.263L789.604 597.82L810.456 574.996C846.198 535.873 876.619 509.396 898.66 498.23C920.327 487.253 921.672 487.425 927.997 501.956ZM801.391 504.906C692.998 590.15 708.804 686.774 837.724 727.009C852.577 731.645 857.149 731.73 844.895 727.142C740.707 688.135 721.025 588.943 801.515 508.517C808.915 501.124 814.719 495.081 814.414 495.087C814.11 495.095 808.248 499.513 801.391 504.906ZM882.536 531.315C873.281 536.038 852.513 554.467 854.302 556.367C854.801 556.896 896.78 545.587 906.336 542.35C912.025 540.422 903.067 526.113 896.173 526.113C894.278 526.113 888.142 528.454 882.536 531.315ZM1172.83 604.518C1176.1 608.21 1176.15 608.578 1173.79 611.088C1169.91 615.203 1162.43 608.82 1164.48 603.145C1165.8 599.509 1168.84 600.008 1172.83 604.518ZM1001.74 611.469C1000.55 615.849 1000.72 616.125 1004.56 616.125C1010.77 616.125 1009.19 623.509 1002.83 624.187C998.955 624.6 998.136 625.555 996.428 631.644C993.839 640.882 993.854 640.956 998.082 640.956C1001.76 640.956 1002.59 643 1000.85 647.812C996.675 659.357 983.283 647.198 986.414 634.708C989.065 624.133 989.064 623.885 986.385 623.885C985.179 623.885 984.192 623.244 984.192 622.46C984.192 618.903 986.205 616.125 988.78 616.125C990.328 616.125 991.903 615.078 992.279 613.797C992.656 612.517 993.273 610.422 993.65 609.141C995.169 603.98 1003.14 606.273 1001.74 611.469ZM866.426 616.375C871.699 618.925 871.248 623.382 865.581 624.703C862.63 625.392 860.63 625.112 859.933 623.914C858.361 621.214 851.988 622.643 851.416 625.825C851.068 627.758 851.874 628.541 854.21 628.541C858.251 628.541 862.839 632.731 862.839 636.421C862.839 647.69 840.776 656.114 832.969 647.826C827.743 642.28 834.435 636.864 841.534 640.895C845.85 643.348 851.719 642.426 852.298 639.204C852.597 637.534 851.363 636.306 848.666 635.588C840.335 633.369 838.753 628.764 843.924 621.785C848.547 615.546 859.345 612.95 866.426 616.375ZM907.594 618.846C917.249 632.346 892.002 657.829 877.131 649.594C873.181 647.406 873.112 647.455 869.09 655.423C865.429 662.674 855.529 668.486 855.529 663.384C855.529 657.374 881.336 616.125 885.097 616.125C887.453 616.125 888.942 616.791 888.455 617.627C887.972 618.455 889.743 618.105 892.389 616.851C898.074 614.159 904.88 615.051 907.594 618.846ZM942.352 616.055C962.246 624.085 940.316 656.956 919.486 650.331C916.025 649.231 913.272 647.139 912.299 644.872C906.08 630.383 927.34 609.998 942.352 616.055ZM981.268 616.774C981.268 621.603 979.367 623.885 975.345 623.885C969.405 623.885 964.581 629.421 960.805 640.568C957.657 649.856 948.978 655.636 949.147 648.328C949.438 635.81 968.109 605.439 968.109 617.482C968.109 618.371 969.845 618.084 972.13 616.819C977.266 613.976 981.268 613.956 981.268 616.774ZM1047.84 616.822C1050.63 618.059 1052.91 620.107 1052.91 621.374C1052.91 624.661 1047.31 626.104 1043.33 623.841C1039.53 621.683 1034.81 622.887 1035.72 625.786C1036.05 626.83 1038.24 628.106 1040.59 628.62C1054.84 631.731 1057.14 644.148 1044.51 649.749C1036.52 653.292 1022.21 648.568 1022.21 642.39C1022.21 639.904 1030.72 638.001 1031.55 640.303C1032.04 641.643 1034.41 642.508 1037.62 642.508C1044.8 642.508 1043.97 638.127 1036.25 635.295C1028.56 632.469 1026.59 630.476 1026.59 625.488C1026.59 616.581 1037.38 612.182 1047.84 616.822ZM1088.37 620.831C1090.87 623.734 1092.39 627.228 1092.39 630.117V634.748H1079.96C1070.74 634.748 1067.53 635.268 1067.53 636.766C1067.53 642.323 1077.26 644.572 1082.97 640.331C1085.32 638.58 1086.55 638.524 1089.21 640.04L1092.54 641.926L1088.72 645.975C1077.52 657.86 1055.64 647.845 1057.89 631.868C1060.17 615.72 1078.28 609.157 1088.37 620.831ZM1120.78 615.515C1125.41 617.401 1123.61 623.885 1118.45 623.885C1110.73 623.885 1108.47 627.454 1108.47 639.645V650.268H1103.15H1097.83L1098.75 642.12C1099.26 637.64 1099.68 629.864 1099.68 624.844L1099.7 615.717L1105.36 616.522C1108.47 616.966 1111.93 616.72 1113.04 615.975C1115.43 614.365 1117.63 614.235 1120.78 615.515ZM1205.75 618.349C1212.2 622.833 1207.51 627.307 1200.11 623.728C1195.17 621.34 1190.73 622.966 1193.28 626.231C1194.28 627.501 1196.7 628.541 1198.66 628.541C1209.73 628.541 1219.85 642.683 1213.07 648.664C1207.04 653.97 1186.69 649.218 1186.69 642.508C1186.69 639.702 1192.97 638.46 1195.19 640.824C1196.07 641.751 1198.67 642.508 1200.98 642.508C1208.07 642.508 1205.44 637.605 1197.14 635.357C1188.31 632.967 1182.74 627.749 1183.34 622.42C1184.18 614.778 1197.22 612.411 1205.75 618.349ZM1139.47 627.22L1144.15 638.315L1147.63 627.22C1151.23 615.756 1163.61 608.307 1160.27 619.617C1149.19 657.071 1144.03 659.584 1132.32 633.209L1124.73 616.125H1129.77C1134.6 616.125 1134.99 616.572 1139.47 627.22ZM1176.73 628.541C1179.65 648.126 1179.41 650.268 1174.26 650.268C1171.76 650.268 1169.85 649.436 1169.82 648.328C1169.79 647.261 1168.92 639.544 1167.88 631.177L1165.99 615.968L1170.49 616.434C1174.9 616.892 1175.03 617.14 1176.73 628.541ZM1069.72 625.437C1067.11 628.506 1067.17 628.541 1075.35 628.541C1083.79 628.541 1085.84 626.809 1080.79 623.939C1076.47 621.49 1072.65 622.007 1069.72 625.437ZM883.99 629.059C881.203 632.017 878.922 635.47 878.922 636.732C878.922 643.902 891.155 643.891 896.473 636.715C904.71 625.601 893.642 618.813 883.99 629.059ZM925.251 628.238C920.061 633.988 919.944 640.529 925.006 641.878C933.198 644.06 942.034 635.135 939.632 627.103C938.145 622.13 930.199 622.757 925.251 628.238Z" fill="white"/>
</svg>
