<svg width="2048" height="1154" viewBox="0 0 2048 1154" fill="none" xmlns="http://www.w3.org/2000/svg">
<rect width="2048" height="1154" fill="white"/>
<path fill-rule="evenodd" clip-rule="evenodd" d="M1037.53 497.455C952.036 503.672 889.978 553.392 902.643 605.529C919.234 673.832 1066.91 675.995 1127.67 608.825C1177.15 554.124 1126.08 491.017 1037.53 497.455ZM1062.48 508.361C1165.06 521.007 1151.72 618.265 1043.95 643.42C931.226 669.73 866.94 585.399 957.853 530.48C977.361 518.696 1001.56 511.146 1030.13 507.927C1035.28 507.348 1056.57 507.633 1062.48 508.361ZM1034.08 525.373C1009.58 527.107 973.989 538.252 965.007 547.001C964.329 547.662 962.016 549.468 959.866 551.015C929.159 573.112 928.756 604.941 958.986 620.659C961.921 622.185 964.248 623.672 964.156 623.963C963.784 625.146 979.479 628.879 988.899 629.85C1039.94 635.108 1098.26 611.048 1113.34 578.51C1115.66 573.505 1114.96 576.668 1112.53 582.172C1109.21 589.684 1103.61 597.155 1096 604.221C1093.04 606.968 1094.97 605.816 1100.19 601.721C1136.24 573.443 1129.46 539.77 1085.18 527.141C1080.49 525.805 1078.64 525.771 1082.86 527.099C1092.14 530.017 1103.74 538.155 1108.94 545.386L1111.25 548.599L1107.8 545.183C1092.98 530.514 1065.56 523.145 1034.08 525.373ZM1086.28 547.486C1092.29 546.253 1095.18 546.793 1098.24 549.731C1101.22 552.579 1101.88 558.262 1099.41 559.729C1098.8 560.088 1099.06 560.464 1100.69 561.61C1107.01 566.038 1105.36 576.63 1098.03 578.709C1096.91 579.026 1093.11 580.188 1089.59 581.291C1083.56 583.174 1077.78 584.473 1072.49 585.13L1070.2 585.415L1069.61 581.905C1069.29 579.974 1068.93 578.011 1068.81 577.542C1068.63 576.852 1069.13 576.621 1071.44 576.335C1083.81 574.796 1096.72 570.727 1097.5 568.119C1097.92 566.731 1096.6 565.499 1095.06 565.833C1094.49 565.956 1092.47 566.199 1090.57 566.373C1088.67 566.548 1086.43 566.815 1085.59 566.967C1084.28 567.203 1081.52 561.349 1082.58 560.581C1082.64 560.543 1084.57 559.984 1086.87 559.339C1091.33 558.092 1094.27 556.532 1094.27 555.408C1094.27 554.256 1093.19 554.194 1089.59 555.139C1079.83 557.696 1080.62 557.266 1071.82 564.842C1065.85 569.992 1059.29 577.202 1056.28 581.928C1053.54 586.231 1054.06 586.347 1050.73 580.675L1047.92 575.9L1049.2 574.272C1051.98 570.749 1060.98 562.708 1071.1 554.711C1083.2 545.153 1082.66 545.513 1082.83 546.903L1082.97 548.164L1086.28 547.486ZM1044.24 550.207C1044.54 551.335 1044.95 553.364 1045.14 554.716L1045.48 557.174L1043.36 558.305C1042.19 558.928 1039.4 560.486 1037.17 561.769L1033.1 564.102L1038.8 570.239C1047.02 579.088 1047.51 580.131 1045.25 584.085L1044.09 586.117L1042.56 583.768C1039.85 579.592 1032.98 572.839 1028.11 569.569L1026.83 568.707L1020.96 574.368C1017.73 577.483 1013.61 581.759 1011.81 583.872L1008.53 587.713L1007 584.449C1006.16 582.654 1005.03 580.522 1004.48 579.709C1003.94 578.897 1003.49 578.146 1003.49 578.04C1003.49 577.934 1006.72 574.687 1010.67 570.825C1018.79 562.888 1018.69 563.441 1012.16 562.238L1008.73 561.609L1007.05 556.247C1004.79 549.054 1006.35 548.893 1018.51 555.059C1022.86 557.261 1024.77 557.991 1025.15 557.593C1025.99 556.699 1042.66 547.845 1043.2 548.008C1043.46 548.089 1043.93 549.079 1044.24 550.207ZM991.435 552.224C993.346 556.605 993.419 556.995 992.412 557.404C991.819 557.645 991.899 558.09 992.873 559.943C994.681 563.383 997.519 573.269 1000.23 585.582L1000.55 587.019H996.859H993.168L992.683 585.059C992.416 583.981 992.042 582.393 991.851 581.531C990.876 577.131 989.262 574.374 987.835 574.67C987.084 574.827 985.244 575.102 983.747 575.282C981.58 575.543 974.516 577.832 965.933 581.055C965.329 581.283 964.786 580.573 963.713 578.149L962.294 574.942L958.433 579.002C956.31 581.235 953.441 584.54 952.057 586.347C949.095 590.214 949.509 590.161 946.854 587.02L944.735 584.513L951.771 576.825C963.832 563.648 974.098 554.73 981.536 550.969C988.847 547.271 989.301 547.329 991.435 552.224ZM948.712 553.217C912.135 581.929 917.469 614.474 960.973 628.026C965.985 629.587 967.528 629.616 963.393 628.071C928.235 614.932 921.593 581.523 948.754 554.434C951.251 551.943 953.21 549.908 953.107 549.91C953.004 549.913 951.026 551.401 948.712 553.217ZM976.095 562.112C972.972 563.703 965.963 569.91 966.567 570.55C966.735 570.728 980.901 566.919 984.126 565.829C986.046 565.18 983.023 560.36 980.696 560.36C980.057 560.36 977.986 561.149 976.095 562.112ZM1074.05 586.769C1075.16 588.012 1075.17 588.136 1074.38 588.981C1073.07 590.368 1070.54 588.218 1071.24 586.306C1071.68 585.081 1072.71 585.25 1074.05 586.769ZM1016.32 589.11C1015.92 590.585 1015.98 590.678 1017.27 590.678C1019.37 590.678 1018.83 593.165 1016.69 593.394C1015.38 593.533 1015.1 593.854 1014.53 595.905C1013.65 599.017 1013.66 599.042 1015.09 599.042C1016.33 599.042 1016.61 599.73 1016.02 601.351C1014.61 605.24 1010.09 601.144 1011.15 596.937C1012.04 593.375 1012.04 593.292 1011.14 593.292C1010.73 593.292 1010.4 593.076 1010.4 592.812C1010.4 591.614 1011.08 590.678 1011.95 590.678C1012.47 590.678 1013 590.325 1013.13 589.894C1013.25 589.463 1013.46 588.757 1013.59 588.326C1014.1 586.587 1016.79 587.36 1016.32 589.11ZM970.658 590.762C972.438 591.621 972.285 593.122 970.373 593.567C969.377 593.799 968.702 593.705 968.467 593.302C967.937 592.392 965.786 592.874 965.593 593.945C965.476 594.596 965.747 594.86 966.536 594.86C967.9 594.86 969.448 596.271 969.448 597.514C969.448 601.31 962.003 604.147 959.368 601.356C957.605 599.488 959.863 597.663 962.258 599.021C963.715 599.847 965.695 599.537 965.891 598.452C965.992 597.889 965.575 597.476 964.665 597.234C961.854 596.486 961.32 594.935 963.065 592.584C964.625 590.483 968.269 589.609 970.658 590.762ZM984.55 591.594C987.808 596.142 979.289 604.725 974.271 601.951C972.937 601.214 972.914 601.231 971.557 603.914C970.322 606.357 966.981 608.314 966.981 606.596C966.981 604.572 975.69 590.678 976.959 590.678C977.754 590.678 978.256 590.902 978.092 591.184C977.929 591.463 978.526 591.345 979.419 590.923C981.338 590.016 983.634 590.316 984.55 591.594ZM996.279 590.655C1002.99 593.359 995.592 604.431 988.563 602.199C987.395 601.829 986.466 601.124 986.138 600.36C984.039 595.48 991.214 588.614 996.279 590.655ZM1009.41 590.897C1009.41 592.523 1008.77 593.292 1007.41 593.292C1005.41 593.292 1003.78 595.156 1002.51 598.911C1001.44 602.039 998.515 603.986 998.572 601.525C998.671 597.308 1004.97 587.079 1004.97 591.135C1004.97 591.434 1005.56 591.338 1006.33 590.912C1008.06 589.954 1009.41 589.947 1009.41 590.897ZM1031.88 590.913C1032.82 591.329 1033.59 592.019 1033.59 592.446C1033.59 593.553 1031.7 594.039 1030.35 593.277C1029.07 592.55 1027.48 592.956 1027.79 593.932C1027.9 594.284 1028.64 594.714 1029.43 594.887C1034.24 595.935 1035.01 600.117 1030.75 602.003C1028.06 603.197 1023.23 601.606 1023.23 599.525C1023.23 598.687 1026.1 598.046 1026.38 598.822C1026.54 599.273 1027.35 599.564 1028.43 599.564C1030.85 599.564 1030.57 598.089 1027.96 597.135C1025.37 596.183 1024.71 595.512 1024.71 593.832C1024.71 590.832 1028.35 589.35 1031.88 590.913ZM1045.55 592.263C1046.4 593.241 1046.91 594.418 1046.91 595.391V596.951H1042.71C1039.6 596.951 1038.52 597.126 1038.52 597.63C1038.52 599.502 1041.8 600.26 1043.73 598.831C1044.52 598.241 1044.94 598.223 1045.84 598.733L1046.96 599.368L1045.67 600.732C1041.89 604.735 1034.51 601.362 1035.27 595.981C1036.04 590.542 1042.15 588.331 1045.55 592.263ZM1056.49 590.473C1058.05 591.108 1057.44 593.292 1055.7 593.292C1053.1 593.292 1052.34 594.494 1052.34 598.6V602.178H1050.54H1048.74L1049.06 599.434C1049.23 597.925 1049.37 595.306 1049.37 593.615L1049.37 590.541L1051.29 590.812C1052.34 590.961 1053.5 590.878 1053.88 590.627C1054.68 590.085 1055.43 590.041 1056.49 590.473ZM1085.16 591.427C1087.34 592.937 1085.76 594.444 1083.26 593.239C1081.59 592.434 1080.09 592.982 1080.96 594.082C1081.29 594.51 1082.11 594.86 1082.77 594.86C1086.51 594.86 1089.92 599.623 1087.63 601.638C1085.6 603.425 1078.73 601.825 1078.73 599.564C1078.73 598.619 1080.85 598.201 1081.6 598.997C1081.89 599.309 1082.77 599.564 1083.55 599.564C1085.95 599.564 1085.06 597.913 1082.26 597.156C1079.28 596.351 1077.4 594.593 1077.6 592.798C1077.88 590.224 1082.28 589.427 1085.16 591.427ZM1062.8 594.415L1064.37 598.152L1065.55 594.415C1066.76 590.554 1070.94 588.045 1069.82 591.854C1066.08 604.47 1064.33 605.316 1060.38 596.432L1057.82 590.678H1059.52C1061.15 590.678 1061.28 590.829 1062.8 594.415ZM1075.37 594.86C1076.36 601.457 1076.27 602.178 1074.54 602.178C1073.69 602.178 1073.05 601.898 1073.04 601.525C1073.03 601.165 1072.73 598.566 1072.38 595.748L1071.75 590.625L1073.27 590.782C1074.75 590.936 1074.8 591.02 1075.37 594.86ZM1039.26 593.814C1038.38 594.848 1038.4 594.86 1041.16 594.86C1044.01 594.86 1044.7 594.277 1042.99 593.31C1041.54 592.485 1040.25 592.659 1039.26 593.814ZM976.585 595.034C975.645 596.031 974.875 597.194 974.875 597.619C974.875 600.034 979.003 600.03 980.797 597.613C983.577 593.87 979.842 591.583 976.585 595.034ZM990.509 594.758C988.757 596.695 988.718 598.898 990.426 599.352C993.19 600.087 996.172 597.081 995.361 594.376C994.86 592.701 992.178 592.912 990.509 594.758Z" fill="black"/>
</svg>
