<svg width="882" height="617" viewBox="0 0 882 617" fill="none" xmlns="http://www.w3.org/2000/svg">
<path fill-rule="evenodd" clip-rule="evenodd" d="M489.524 1.74376C182.983 25.5681 -39.5179 216.111 5.889 415.914C65.3749 677.673 594.85 685.963 812.695 428.546C990.1 218.915 806.98 -22.9279 489.524 1.74376ZM578.963 43.539C946.76 92.003 898.913 464.725 512.52 561.124C108.371 661.952 -122.117 338.772 203.84 128.305C273.781 83.1467 360.533 54.2122 462.99 41.8763C481.449 39.6548 557.784 40.7485 578.963 43.539ZM477.142 108.734C389.305 115.381 261.692 158.091 229.49 191.619C227.058 194.151 218.763 201.072 211.058 207C100.959 291.682 99.5154 413.66 207.9 473.897C218.424 479.747 226.766 485.446 226.437 486.562C225.103 491.093 281.375 505.4 315.149 509.12C498.167 529.272 707.265 437.066 761.323 312.369C769.639 293.191 767.115 305.312 758.403 326.404C746.51 355.194 726.431 383.824 699.143 410.902C688.535 421.429 695.46 417.016 714.179 401.323C843.43 292.952 819.12 163.907 660.336 115.509C643.542 110.391 636.909 110.26 652.033 115.347C685.291 126.531 726.894 157.717 745.53 185.431L753.811 197.743L741.44 184.652C688.321 128.436 590.002 100.194 477.142 108.734ZM664.295 193.478C685.857 188.751 696.191 190.822 707.194 202.08C717.862 212.996 720.231 234.775 711.361 240.396C709.191 241.772 710.114 243.214 715.975 247.605C738.619 264.575 732.7 305.166 706.423 313.135C702.419 314.349 688.795 318.8 676.147 323.027C654.543 330.244 633.815 335.222 614.866 337.742L606.653 338.834L604.537 325.38C603.375 317.981 602.073 310.456 601.643 308.66C601.011 306.015 602.814 305.132 611.086 304.034C655.454 298.137 701.737 282.544 704.539 272.549C706.028 267.231 701.296 262.507 695.761 263.789C693.73 264.26 686.495 265.192 679.685 265.859C672.875 266.528 664.83 267.551 661.808 268.134C657.12 269.04 647.248 246.606 651.039 243.661C651.228 243.515 658.148 241.373 666.418 238.903C682.42 234.124 692.952 228.144 692.952 223.835C692.952 219.424 689.069 219.186 676.147 222.805C641.168 232.605 643.986 230.959 612.465 259.991C591.035 279.729 567.52 307.359 556.744 325.469C546.928 341.961 548.776 342.406 536.826 320.669L526.762 302.367L531.358 296.129C541.303 282.63 573.582 251.812 609.881 221.165C653.264 184.538 651.327 185.916 651.913 191.243L652.445 196.076L664.295 193.478ZM513.553 203.905C514.652 208.228 516.106 216.004 516.783 221.185L518.018 230.604L510.405 234.939C506.218 237.325 496.227 243.298 488.204 248.214L473.616 257.155L494.061 280.672C523.544 314.587 525.285 318.581 517.185 333.736L513.023 341.522L507.553 332.52C497.831 316.516 473.188 290.637 455.737 278.104L451.14 274.801L430.088 296.498C418.51 308.433 403.752 324.822 397.29 332.919L385.542 347.64L380.064 335.132C377.05 328.253 372.983 320.08 371.025 316.967C369.068 313.854 367.467 310.975 367.467 310.571C367.467 310.164 379.052 297.72 393.212 282.918C422.306 252.503 421.963 254.623 398.539 250.013L386.269 247.599L380.221 227.052C372.109 199.488 377.704 198.869 421.326 222.499C436.902 230.936 443.765 233.737 445.113 232.211C448.14 228.783 507.916 194.854 509.828 195.479C510.78 195.79 512.457 199.582 513.553 203.905ZM324.243 211.633C331.093 228.422 331.356 229.917 327.744 231.487C325.618 232.411 325.908 234.114 329.4 241.217C335.879 254.398 346.054 292.285 355.785 339.471L356.921 344.98H343.689H330.456L328.717 337.468C327.76 333.337 326.417 327.251 325.733 323.946C322.239 307.085 316.453 296.52 311.335 297.656C308.643 298.255 302.047 299.308 296.678 300C288.91 300.999 263.583 309.773 232.81 322.125C230.642 322.997 228.698 320.276 224.85 310.987L219.761 298.697L205.919 314.255C198.307 322.812 188.019 335.479 183.057 342.404C172.438 357.224 173.922 357.019 164.402 344.982L156.804 335.375L182.033 305.913C225.276 255.414 262.083 221.237 288.749 206.824C314.963 192.655 316.591 192.877 324.243 211.633ZM171.065 215.442C39.9234 325.475 59.0474 450.195 215.024 502.131C232.994 508.114 238.526 508.225 223.7 502.303C97.6457 451.952 73.8322 323.916 171.216 220.103C180.168 210.56 187.191 202.759 186.821 202.767C186.453 202.777 179.362 208.48 171.065 215.442ZM269.242 249.53C258.044 255.626 232.916 279.414 235.082 281.866C235.685 282.55 286.475 267.952 298.036 263.773C304.919 261.285 294.081 242.816 285.74 242.816C283.448 242.816 276.024 245.836 269.242 249.53ZM620.459 344.02C624.415 348.786 624.478 349.261 621.62 352.5C616.927 357.813 607.877 349.573 610.359 342.248C611.951 337.554 615.632 338.199 620.459 344.02ZM413.46 352.993C412.029 358.646 412.23 359.003 416.875 359.003C424.388 359.003 422.472 368.534 414.783 369.409C410.093 369.942 409.103 371.174 407.037 379.035C403.904 390.958 403.922 391.054 409.037 391.054C413.493 391.054 414.491 393.692 412.386 399.904C407.336 414.806 391.132 399.111 394.921 382.989C398.128 369.339 398.126 369.019 394.886 369.019C393.426 369.019 392.232 368.191 392.232 367.18C392.232 362.588 394.668 359.003 397.783 359.003C399.657 359.003 401.562 357.65 402.016 355.998C402.473 354.345 403.219 351.641 403.676 349.988C405.514 343.325 415.158 346.286 413.46 352.993ZM249.75 359.325C256.13 362.616 255.584 368.37 248.727 370.074C245.157 370.964 242.738 370.603 241.894 369.057C239.992 365.571 232.281 367.416 231.59 371.523C231.169 374.019 232.143 375.028 234.97 375.028C239.86 375.028 245.41 380.437 245.41 385.201C245.41 399.746 218.717 410.62 209.271 399.922C202.949 392.763 211.045 385.772 219.633 390.976C224.855 394.141 231.956 392.951 232.656 388.792C233.019 386.637 231.526 385.052 228.262 384.125C218.183 381.26 216.269 375.317 222.526 366.308C228.119 358.255 241.183 354.904 249.75 359.325ZM299.558 362.514C311.24 379.94 280.694 412.833 262.702 402.204C257.922 399.379 257.839 399.444 252.973 409.728C248.543 419.087 236.566 426.589 236.566 420.005C236.566 412.246 267.789 359.003 272.339 359.003C275.191 359.003 276.991 359.862 276.402 360.942C275.819 362.009 277.961 361.559 281.162 359.94C288.04 356.464 296.275 357.616 299.558 362.514ZM341.611 358.912C365.681 369.277 339.148 411.707 313.946 403.156C309.759 401.735 306.428 399.035 305.25 396.108C297.727 377.406 323.449 351.094 341.611 358.912ZM388.695 359.84C388.695 366.074 386.395 369.019 381.529 369.019C374.341 369.019 368.506 376.164 363.936 390.553C360.128 402.543 349.628 410.003 349.833 400.569C350.185 384.411 372.774 345.208 372.774 360.753C372.774 361.901 374.874 361.531 377.639 359.898C383.853 356.228 388.695 356.202 388.695 359.84ZM469.238 359.902C472.611 361.499 475.373 364.143 475.373 365.777C475.373 370.02 468.599 371.883 463.782 368.963C459.183 366.176 453.471 367.731 454.573 371.473C454.97 372.821 457.623 374.467 460.469 375.13C477.704 379.147 480.492 395.175 465.215 402.404C455.548 406.978 438.225 400.88 438.225 392.905C438.225 389.696 448.525 387.24 449.532 390.211C450.119 391.941 452.994 393.057 456.873 393.057C465.558 393.057 464.552 387.402 455.216 383.746C445.907 380.098 443.532 377.526 443.532 371.088C443.532 359.591 456.581 353.912 469.238 359.902ZM518.269 365.076C521.305 368.824 523.134 373.334 523.134 377.064V383.041H508.098C496.939 383.041 493.062 383.712 493.062 385.645C493.062 392.819 504.836 395.722 511.738 390.247C514.586 387.987 516.067 387.915 519.297 389.872L523.314 392.306L518.699 397.532C505.153 412.873 478.673 399.946 481.398 379.323C484.152 358.48 506.071 350.008 518.269 365.076ZM557.483 358.215C563.084 360.649 560.906 369.019 554.672 369.019C545.327 369.019 542.592 373.626 542.592 389.361V403.073H536.155H529.716L530.832 392.556C531.446 386.773 531.956 376.737 531.963 370.257L531.979 358.476L538.83 359.515C542.598 360.088 546.776 359.77 548.117 358.808C551.011 356.731 553.68 356.563 557.483 358.215ZM660.294 361.873C668.095 367.66 662.418 373.436 653.468 368.816C647.49 365.733 642.12 367.833 645.208 372.047C646.41 373.686 649.337 375.028 651.715 375.028C665.109 375.028 677.355 393.284 669.14 401.004C661.854 407.853 637.231 401.719 637.231 393.057C637.231 389.435 644.823 387.833 647.517 390.884C648.573 392.08 651.723 393.057 654.518 393.057C663.103 393.057 659.915 386.729 649.871 383.826C639.192 380.741 632.454 374.007 633.171 367.128C634.195 357.264 649.965 354.209 660.294 361.873ZM580.101 373.324L585.756 387.645L589.971 373.324C594.327 358.526 609.31 348.91 605.264 363.51C591.864 411.856 585.615 415.099 571.447 381.054L562.272 359.003H568.359C574.201 359.003 574.674 359.579 580.101 373.324ZM625.179 375.028C628.713 400.309 628.419 403.073 622.195 403.073C619.163 403.073 616.861 402 616.824 400.569C616.789 399.193 615.731 389.231 614.475 378.432L612.188 358.8L617.634 359.401C622.968 359.992 623.121 360.313 625.179 375.028ZM495.715 371.022C492.549 374.984 492.625 375.028 502.517 375.028C512.734 375.028 515.211 372.793 509.099 369.089C503.881 365.928 499.253 366.595 495.715 371.022ZM271 375.697C267.628 379.516 264.869 383.973 264.869 385.601C264.869 394.856 279.669 394.842 286.103 385.579C296.069 371.234 282.678 362.472 271 375.697ZM320.921 374.638C314.641 382.06 314.5 390.503 320.624 392.244C330.535 395.061 341.227 383.54 338.32 373.173C336.521 366.753 326.907 367.562 320.921 374.638Z" fill="black"/>
</svg>
