<svg width="696" height="265" viewBox="0 0 696 265" fill="none" xmlns="http://www.w3.org/2000/svg">
<g filter="url(#filter0_i_63_3)">
<path d="M665.587 18.1001C652.362 5.64265 639.94 3.35069 614.022 8.58191L599.777 11.4569L599.137 6.10817C598.434 0.214174 600.762 -1.31087 548.614 39.2178C504.982 73.1299 466.18 107.23 454.226 122.168L448.702 129.071L460.799 149.322C475.164 173.374 472.942 172.882 484.741 154.633C497.695 134.595 525.96 104.021 551.72 82.1804C589.609 50.0549 586.222 51.8769 628.268 41.0332C643.801 37.0278 648.468 37.2916 648.468 42.1726C648.468 46.9405 635.808 53.5571 616.573 58.846C606.633 61.5791 598.315 63.9487 598.087 64.1105C593.53 67.3689 605.397 92.1929 611.032 91.1909C614.664 90.5459 624.334 89.4132 632.521 88.6729C640.707 87.9347 649.404 86.904 651.845 86.3831C658.498 84.9644 664.186 90.1912 662.396 96.0764C659.028 107.135 603.394 124.389 550.062 130.915C540.119 132.13 537.952 133.107 538.711 136.033C539.228 138.022 540.793 146.347 542.19 154.535L544.733 169.422L554.606 168.214C577.383 165.426 602.299 159.917 628.268 151.931C643.471 147.254 659.848 142.328 664.66 140.985C696.247 132.167 703.362 87.252 676.142 68.475C669.098 63.6162 667.988 62.0202 670.597 60.4974C681.258 54.2776 678.411 30.1784 665.587 18.1001Z" stroke="black" stroke-width="5"/>
<path d="M436.707 39.24C435.893 33.5078 434.145 24.9029 432.825 20.1194C431.506 15.3359 429.491 11.1399 428.347 10.7963C426.048 10.1047 354.195 47.6476 350.557 51.4402C348.937 53.1293 340.687 50.0305 321.964 40.6941C269.529 14.5468 262.804 15.2318 272.555 45.7325L279.825 68.4683L294.573 71.1394C322.73 76.2398 323.142 73.8946 288.171 107.55C271.149 123.928 257.224 137.698 257.224 138.148C257.224 138.596 259.148 141.781 261.5 145.225C263.854 148.67 268.742 157.714 272.366 165.326L278.951 179.166L293.072 162.876C300.839 153.917 318.579 135.783 332.496 122.576L357.801 98.5678L363.328 102.223C384.304 116.09 413.926 144.727 425.612 162.435L432.187 172.397L437.19 163.781C446.926 147.012 444.834 142.592 409.395 105.065L384.819 79.0416L402.354 69.1489C411.997 63.7093 424.007 57.0993 429.04 54.4593L438.191 49.6626L436.707 39.24Z" stroke="black" stroke-width="5"/>
<path d="M209.475 50.6401C213.817 48.9022 213.5 47.2486 205.267 28.6711C196.069 7.91693 194.113 7.67088 162.603 23.349C130.548 39.2976 86.3058 77.1154 34.3256 132.994L4 165.594L13.1326 176.225C24.5765 189.545 22.7925 189.771 35.5568 173.372C41.5212 165.709 53.8878 151.694 63.0374 142.224L79.6759 125.01L85.7934 138.609C90.4181 148.887 92.7549 151.897 95.3618 150.933C132.351 137.266 162.796 127.557 172.133 126.451C178.586 125.686 186.515 124.52 189.752 123.857C195.903 122.6 202.858 134.291 207.058 152.948C207.881 156.606 209.494 163.34 210.645 167.91L212.735 176.223H228.642H244.547L243.182 170.127C231.485 117.915 219.254 75.9915 211.466 61.4062C207.268 53.546 206.919 51.6619 209.475 50.6401Z" stroke="black" stroke-width="5"/>
<path d="M562.724 184.544C566.16 180.96 566.084 180.434 561.329 175.161C555.527 168.719 551.102 168.006 549.188 173.199C546.205 181.305 557.083 190.422 562.724 184.544Z" stroke="black" stroke-width="5"/>
<path d="M316.615 191.739C311.031 191.739 310.788 191.345 312.509 185.089C314.55 177.668 302.957 174.392 300.748 181.764C300.199 183.593 299.302 186.585 298.753 188.414C298.207 190.243 295.917 191.739 293.665 191.739C289.921 191.739 286.993 195.707 286.993 200.787C286.993 201.907 288.428 202.822 290.182 202.822C294.078 202.822 294.08 203.177 290.225 218.281C285.67 236.12 305.147 253.487 311.218 236.998C313.748 230.124 312.549 227.205 307.193 227.205C301.043 227.205 301.022 227.099 304.788 213.905C307.271 205.207 308.462 203.844 314.099 203.254C323.342 202.286 325.645 191.739 316.615 191.739Z" stroke="black" stroke-width="5"/>
<path d="M114.494 203.99C122.736 202.104 123.393 195.738 115.723 192.096C105.426 187.204 89.7228 190.912 82.9994 199.823C75.4785 209.791 77.7792 216.368 89.895 219.538C93.8181 220.564 95.6127 222.317 95.1768 224.702C94.3348 229.304 85.7997 230.621 79.5228 227.119C69.1995 221.36 59.4673 229.096 67.0668 237.018C78.4214 248.855 110.508 236.823 110.508 220.728C110.508 215.457 103.835 209.472 97.9581 209.472C94.5602 209.472 93.3886 208.355 93.8947 205.593C94.726 201.049 103.995 199.007 106.28 202.864C107.295 204.576 110.204 204.974 114.494 203.99Z" stroke="black" stroke-width="5"/>
<path d="M131.292 239.543C152.919 251.304 189.637 214.907 175.594 195.625C171.648 190.205 161.75 188.931 153.483 192.776C149.634 194.567 147.059 195.066 147.761 193.885C148.469 192.69 146.304 191.739 142.877 191.739C137.408 191.739 99.876 250.655 99.876 259.24C99.876 266.526 114.273 258.224 119.598 247.868C125.447 236.488 125.547 236.417 131.292 239.543Z" stroke="black" stroke-width="5"/>
<path d="M192.89 240.596C223.184 250.058 255.077 203.108 226.144 191.639C204.313 182.988 173.394 212.103 182.437 232.798C183.853 236.036 187.857 239.024 192.89 240.596Z" stroke="black" stroke-width="5"/>
<path d="M274.126 202.822C279.976 202.822 282.74 199.564 282.74 192.666C282.74 188.64 276.92 188.669 269.451 192.73C266.127 194.536 263.603 194.946 263.603 193.676C263.603 176.475 236.45 219.855 236.027 237.734C235.78 248.172 248.402 239.917 252.98 226.651C258.472 210.729 265.487 202.822 274.126 202.822Z" stroke="black" stroke-width="5"/>
<path d="M386.93 199.236C386.93 197.427 383.611 194.501 379.556 192.734C364.342 186.107 348.656 192.391 348.656 205.112C348.656 212.236 351.512 215.082 362.701 219.119C373.923 223.164 375.133 229.422 364.693 229.422C360.03 229.422 356.575 228.187 355.869 226.272C354.659 222.985 342.277 225.702 342.277 229.253C342.277 238.077 363.1 244.825 374.721 239.764C393.084 231.765 389.733 214.029 369.016 209.585C365.594 208.851 362.405 207.029 361.929 205.538C360.604 201.397 367.47 199.677 372.998 202.76C378.788 205.992 386.93 203.93 386.93 199.236Z" stroke="black" stroke-width="5"/>
<path d="M444.341 211.724C444.341 207.597 442.142 202.607 438.493 198.46C423.83 181.786 397.483 191.161 394.172 214.224C390.898 237.045 422.727 251.348 439.01 234.374L444.558 228.59L439.729 225.897C435.846 223.732 434.066 223.811 430.643 226.312C422.346 232.37 408.193 229.158 408.193 221.22C408.193 219.081 412.854 218.339 426.267 218.339H444.341V211.724Z" stroke="black" stroke-width="5"/>
<path d="M482.251 202.822C489.744 202.822 492.362 193.561 485.63 190.868C481.058 189.039 477.85 189.225 474.371 191.524C472.759 192.588 467.737 192.94 463.208 192.307L454.972 191.156L454.953 204.192C454.945 211.363 454.332 222.468 453.595 228.867L452.253 240.505H459.993H467.73V225.332C467.73 207.92 471.018 202.822 482.251 202.822Z" stroke="black" stroke-width="5"/>
<path d="M601.006 202.598C611.766 207.71 618.589 201.319 609.212 194.915C596.796 186.435 577.84 189.815 576.609 200.73C575.748 208.342 583.847 215.794 596.684 219.207C608.757 222.419 612.589 229.422 602.27 229.422C598.91 229.422 595.123 228.34 593.854 227.017C590.615 223.641 581.489 225.414 581.489 229.422C581.489 239.006 611.087 245.794 619.846 238.215C629.72 229.672 615 209.472 598.899 209.472C596.042 209.472 592.522 207.987 591.079 206.174C587.366 201.51 593.822 199.187 601.006 202.598Z" stroke="black" stroke-width="5"/>
<path d="M519.615 223.432L512.817 207.586C506.293 192.378 505.726 191.739 498.703 191.739H491.386L502.415 216.14C519.445 253.811 526.957 250.222 543.064 196.726C547.927 180.572 529.917 191.212 524.682 207.586L519.615 223.432Z" stroke="black" stroke-width="5"/>
<path d="M563.415 240.505C570.898 240.505 571.251 237.446 567.002 209.472C564.529 193.189 564.344 192.834 557.933 192.18L551.386 191.515L554.136 213.238C555.646 225.188 556.917 236.211 556.96 237.734C557.004 239.317 559.771 240.505 563.415 240.505Z" stroke="black" stroke-width="5"/>
</g>
<defs>
<filter id="filter0_i_63_3" x="0.647217" y="0.499573" width="694.852" height="268" filterUnits="userSpaceOnUse" color-interpolation-filters="sRGB">
<feFlood flood-opacity="0" result="BackgroundImageFix"/>
<feBlend mode="normal" in="SourceGraphic" in2="BackgroundImageFix" result="shape"/>
<feColorMatrix in="SourceAlpha" type="matrix" values="0 0 0 0 0 0 0 0 0 0 0 0 0 0 0 0 0 0 127 0" result="hardAlpha"/>
<feOffset dy="4"/>
<feGaussianBlur stdDeviation="2"/>
<feComposite in2="hardAlpha" operator="arithmetic" k2="-1" k3="1"/>
<feColorMatrix type="matrix" values="0 0 0 0 0 0 0 0 0 0 0 0 0 0 0 0 0 0 0.25 0"/>
<feBlend mode="normal" in2="shape" result="effect1_innerShadow_63_3"/>
</filter>
</defs>
</svg>
